<?xml version="1.0" encoding="utf-8"?>
<!-- Generator: Adobe Illustrator 16.2.0, SVG Export Plug-In . SVG Version: 6.00 Build 0)  -->
<!DOCTYPE svg PUBLIC "-//W3C//DTD SVG 1.1//EN" "http://www.w3.org/Graphics/SVG/1.1/DTD/svg11.dtd">
<svg version="1.1" id="Layer_1" xmlns="http://www.w3.org/2000/svg" xmlns:xlink="http://www.w3.org/1999/xlink" x="0px" y="0px"
	 width="512px" height="512px" viewBox="0 0 512 512" enable-background="new 0 0 512 512" xml:space="preserve">
<g>
	<path d="M146.975,131.016v17.953H95.871v139.877H74.614V148.969H23.399v-17.953H146.975z"/>
	<path d="M153.583,131.016h17.732c1.909,0,3.505,0.479,4.791,1.432c1.284,0.956,2.11,2.167,2.479,3.635l32.601,109.697
		c0.513,1.983,1.008,4.113,1.487,6.388c0.476,2.277,0.936,4.664,1.376,7.159c0.512-2.496,1.046-4.901,1.597-7.214
		c0.55-2.313,1.156-4.422,1.817-6.333l37.116-109.697c0.441-1.248,1.303-2.404,2.591-3.469c1.282-1.063,2.844-1.597,4.68-1.597
		h6.168c1.908,0,3.449,0.479,4.627,1.432c1.174,0.956,2.054,2.167,2.644,3.635l37.007,109.697c0.661,1.911,1.268,3.965,1.817,6.168
		c0.55,2.203,1.046,4.479,1.484,6.828c0.441-2.349,0.882-4.625,1.321-6.828c0.441-2.203,0.918-4.258,1.433-6.168l32.711-109.697
		c0.366-1.321,1.192-2.495,2.479-3.524c1.285-1.027,2.845-1.542,4.682-1.542h16.631L325.62,288.846h-19.164l-39.979-120.383
		c-0.811-2.274-1.543-4.918-2.203-7.93c-0.369,1.469-0.717,2.882-1.047,4.24c-0.33,1.36-0.68,2.588-1.047,3.689l-40.201,120.382
		h-19.164L153.583,131.016z"/>
	<path d="M477.501,155.688c-0.661,1.101-1.378,1.927-2.148,2.478c-0.77,0.551-1.705,0.826-2.808,0.826
		c-1.25,0-2.719-0.623-4.406-1.872c-1.688-1.248-3.801-2.625-6.333-4.13c-2.53-1.504-5.581-2.881-9.142-4.13
		c-3.563-1.248-7.874-1.873-12.941-1.873c-4.772,0-8.976,0.644-12.608,1.927c-3.637,1.286-6.685,3.028-9.144,5.231
		c-2.462,2.203-4.313,4.792-5.562,7.765c-1.249,2.974-1.872,6.187-1.872,9.637c0,4.406,1.082,8.059,3.248,10.958
		c2.165,2.902,5.027,5.38,8.592,7.435c3.56,2.057,7.6,3.838,12.114,5.342c4.517,1.506,9.142,3.066,13.877,4.681
		c4.736,1.615,9.361,3.433,13.879,5.452c4.515,2.021,8.553,4.571,12.114,7.655c3.561,3.083,6.425,6.866,8.591,11.344
		c2.165,4.479,3.249,9.987,3.249,16.521c0,6.902-1.175,13.382-3.523,19.439c-2.351,6.06-5.783,11.328-10.299,15.806
		c-4.516,4.479-10.061,8.004-16.631,10.573c-6.572,2.569-14.043,3.854-22.413,3.854c-10.28,0-19.604-1.854-27.975-5.563
		c-8.371-3.707-15.53-8.719-21.479-15.035l6.168-10.133c0.587-0.808,1.303-1.485,2.147-2.037c0.844-0.551,1.778-0.825,2.809-0.825
		c0.954,0,2.038,0.387,3.249,1.156c1.212,0.771,2.588,1.745,4.131,2.919c1.542,1.177,3.304,2.461,5.286,3.854
		c1.982,1.396,4.239,2.682,6.774,3.854c2.53,1.178,5.412,2.148,8.646,2.919c3.229,0.771,6.863,1.157,10.903,1.157
		c5.063,0,9.582-0.695,13.547-2.094c3.965-1.396,7.324-3.358,10.077-5.895c2.754-2.533,4.862-5.562,6.334-9.083
		c1.468-3.525,2.203-7.452,2.203-11.785c0-4.772-1.086-8.682-3.25-11.73c-2.167-3.046-5.014-5.598-8.535-7.654
		c-3.525-2.055-7.563-3.8-12.115-5.231c-4.555-1.432-9.181-2.9-13.879-4.406c-4.698-1.504-9.325-3.25-13.876-5.232
		c-4.554-1.982-8.591-4.552-12.115-7.709c-3.523-3.156-6.371-7.104-8.536-11.84c-2.166-4.736-3.249-10.59-3.249-17.567
		c0-5.579,1.083-10.976,3.249-16.19c2.165-5.213,5.322-9.838,9.474-13.877c4.146-4.037,9.252-7.269,15.309-9.692
		c6.059-2.423,13.015-3.635,20.872-3.635c8.812,0,16.832,1.396,24.063,4.185c7.231,2.792,13.604,6.829,19.109,12.115
		L477.501,155.688z"/>
</g>
<g>
	<path fill="#010101" d="M442.906,373.954c0-6.104-4.967-11.071-11.07-11.071H244.019c-7.002,0-12.906-5.508-13.162-12.279
		c-0.006-0.164-0.01-0.33-0.01-0.494c0-7.045,5.731-12.773,12.774-12.773h188.215c6.104,0,11.07-4.967,11.07-11.07
		c0-6.104-4.967-11.07-11.07-11.07H243.621c-15.136,0-28.392,9.679-33.116,23.846H100.318c-3.821-5.238-10.009-8.12-16.593-7.607
		c-8.94,0.697-16.143,7.66-17.126,16.556c-0.08,0.704-0.119,1.42-0.119,2.122c0,10.332,8.405,18.738,18.736,18.738
		c5.973,0,11.59-2.894,15.098-7.666h110.191c4.724,14.168,17.979,23.849,33.116,23.849h188.215
		C437.939,385.025,442.906,380.061,442.906,373.954z"/>
	<circle fill="#41A1C7" cx="85.217" cy="350.11" r="18.872"/>
</g>
</svg>
